<?xml version="1.0" encoding="UTF-8" standalone="no"?>
<svg width="137px" height="137px" viewBox="0 0 137 137" version="1.1" xmlns="http://www.w3.org/2000/svg" xmlns:xlink="http://www.w3.org/1999/xlink">
    <!-- Generator: Sketch 40.1 (33804) - http://www.bohemiancoding.com/sketch -->
    <title>comp-icon</title>
    <desc>Created with Sketch.</desc>
    <defs></defs>
    <g id="Symbols" stroke="none" stroke-width="1" fill="none" fill-rule="evenodd" fill-opacity="0.4" stroke-opacity="0.5">
        <g id="comp-icon" stroke="#FFA07A" fill="#DDDDDD">
            <rect id="screen" stroke-width="10" stroke-linecap="square" stroke-linejoin="bevel" x="5" y="5" width="127.093554" height="70"></rect>
            <rect id="window" stroke-width="5" x="34.9748948" y="22" width="67.1437643" height="38" rx="8"></rect>
            <rect id="keyboard" stroke-width="10" x="5" y="89" width="127.093554" height="43" rx="8"></rect>
            <rect id="key" stroke-width="2" x="34.9748948" y="97" width="8.39297054" height="7"></rect>
            <rect id="key" stroke-width="2" x="46.9648527" y="107" width="8.39297054" height="7"></rect>
            <rect id="key" stroke-width="2" x="46.9648527" y="117" width="8.39297054" height="7"></rect>
            <rect id="key" stroke-width="2" x="58.9548106" y="117" width="8.39297054" height="7"></rect>
            <rect id="key" stroke-width="2" x="58.9548106" y="107" width="8.39297054" height="7"></rect>
            <rect id="key" stroke-width="2" x="70.9447685" y="107" width="8.39297054" height="7"></rect>
            <rect id="key" stroke-width="2" x="82.9347264" y="97" width="8.39297054" height="7"></rect>
            <rect id="key" stroke-width="2" x="58.9548106" y="97" width="8.39297054" height="7"></rect>
            <rect id="key" stroke-width="2" x="46.9648527" y="97" width="8.39297054" height="7"></rect>
            <rect id="key" stroke-width="2" x="22.9849369" y="97" width="8.39297054" height="7"></rect>
            <rect id="key" stroke-width="2" x="34.9748948" y="97" width="8.39297054" height="7"></rect>
            <rect id="spacebar" stroke-width="2" x="70.9447685" y="117" width="29.9748948" height="7"></rect>
        </g>
    </g>
</svg>